ply
format ascii 1.0
comment Created by Blender 2.91.2 - www.blender.org
element vertex 141
property float x
property float y
property float z
property float nx
property float ny
property float nz
element face 47
property list uchar uint vertex_indices
end_header
-1.161299 -0.572129 -0.535085 -0.991827 0.050960 0.116972
-1.152664 -0.579026 -0.458855 -0.991827 0.050960 0.116972
-1.151405 -0.520801 -0.473554 -0.991827 0.050960 0.116972
-1.139456 0.520915 -0.641573 -0.944527 0.015261 -0.328078
-1.123938 0.633974 -0.680990 -0.944527 0.015261 -0.328078
-1.120715 0.561171 -0.693655 -0.944527 0.015261 -0.328078
-1.159030 0.612589 -0.532970 -0.971948 0.218627 -0.086715
-1.138249 0.696434 -0.554504 -0.971948 0.218627 -0.086715
-1.149730 0.624797 -0.606429 -0.971948 0.218627 -0.086715
-1.159030 0.612589 -0.532970 -0.998399 -0.052312 0.021503
-1.153617 0.503169 -0.547812 -0.998399 -0.052312 0.021503
-1.153526 0.533857 -0.468945 -0.998399 -0.052312 0.021503
-1.130343 0.696304 -0.606290 -0.939729 0.255221 -0.227533
-1.126043 0.673557 -0.649565 -0.939729 0.255221 -0.227533
-1.149730 0.624797 -0.606429 -0.939729 0.255221 -0.227533
-1.138062 0.459645 -0.565825 -0.949269 -0.280097 -0.142950
-1.153617 0.503169 -0.547812 -0.949269 -0.280097 -0.142950
-1.132288 0.464701 -0.614076 -0.949269 -0.280097 -0.142950
-1.153617 0.503169 -0.547812 -0.959358 -0.212924 -0.185192
-1.139456 0.520915 -0.641573 -0.959358 -0.212924 -0.185192
-1.132288 0.464701 -0.614076 -0.959358 -0.212924 -0.185192
-1.121861 -0.628420 -0.684307 -0.915448 -0.195094 -0.351983
-1.125124 -0.672691 -0.651283 -0.915448 -0.195094 -0.351983
-1.141417 -0.644023 -0.624798 -0.915448 -0.195094 -0.351983
-1.148148 -0.487519 -0.501627 -0.989688 0.135658 0.045976
-1.161299 -0.572129 -0.535085 -0.989688 0.135658 0.045976
-1.151405 -0.520801 -0.473554 -0.989688 0.135658 0.045976
-1.161299 -0.572129 -0.535085 -0.988082 0.151544 -0.027008
-1.147714 -0.491792 -0.581333 -0.988082 0.151544 -0.027008
-1.157146 -0.552801 -0.578584 -0.988082 0.151544 -0.027008
-1.156555 -0.619195 -0.504622 -0.993517 -0.028994 0.109928
-1.152664 -0.579026 -0.458855 -0.993517 -0.028994 0.109928
-1.161299 -0.572129 -0.535085 -0.993517 -0.028994 0.109928
-1.157146 -0.552801 -0.578584 -0.994734 -0.014565 -0.101449
-1.155896 -0.616980 -0.581626 -0.994734 -0.014565 -0.101449
-1.161299 -0.572129 -0.535085 -0.994734 -0.014565 -0.101449
-1.145764 -0.672688 -0.504247 -0.980135 -0.197830 -0.014079
-1.156555 -0.619195 -0.504622 -0.980135 -0.197830 -0.014079
-1.155896 -0.616980 -0.581626 -0.980135 -0.197830 -0.014079
-1.155896 -0.616980 -0.581626 -0.958819 -0.076896 -0.273409
-1.137774 -0.564568 -0.659918 -0.958819 -0.076896 -0.273409
-1.141417 -0.644023 -0.624798 -0.958819 -0.076896 -0.273409
-1.149120 -0.640126 -0.472973 -0.975524 -0.196103 0.099481
-1.156555 -0.619195 -0.504622 -0.975524 -0.196103 0.099481
-1.145764 -0.672688 -0.504247 -0.975524 -0.196103 0.099481
-1.125124 -0.672691 -0.651283 -0.922682 -0.271164 -0.274096
-1.131801 -0.696158 -0.605591 -0.922682 -0.271164 -0.274096
-1.141417 -0.644023 -0.624798 -0.922682 -0.271164 -0.274096
-1.145241 0.679489 -0.512470 -0.972273 0.222476 -0.072042
-1.138249 0.696434 -0.554504 -0.972273 0.222476 -0.072042
-1.159030 0.612589 -0.532970 -0.972273 0.222476 -0.072042
-1.155002 0.562694 -0.598466 -0.998598 -0.045807 -0.026526
-1.153617 0.503169 -0.547812 -0.998598 -0.045807 -0.026526
-1.159030 0.612589 -0.532970 -0.998598 -0.045807 -0.026526
-1.149730 0.624797 -0.606429 -0.991056 0.069513 -0.113914
-1.155002 0.562694 -0.598466 -0.991056 0.069513 -0.113914
-1.159030 0.612589 -0.532970 -0.991056 0.069513 -0.113914
-1.130343 0.696304 -0.606290 -0.954686 0.259119 -0.146396
-1.149730 0.624797 -0.606429 -0.954686 0.259119 -0.146396
-1.138249 0.696434 -0.554504 -0.954686 0.259119 -0.146396
-1.149730 0.624797 -0.606429 -0.945806 0.038943 -0.322387
-1.123938 0.633974 -0.680990 -0.945806 0.038943 -0.322387
-1.155002 0.562694 -0.598466 -0.945806 0.038943 -0.322387
-1.123938 0.633974 -0.680990 -0.935030 0.188620 -0.300236
-1.149730 0.624797 -0.606429 -0.935030 0.188620 -0.300236
-1.126043 0.673557 -0.649565 -0.935030 0.188620 -0.300236
-1.139456 0.520915 -0.641573 -0.900483 -0.121159 -0.417673
-1.120715 0.561171 -0.693655 -0.900483 -0.121159 -0.417673
-1.123067 0.508752 -0.673377 -0.900483 -0.121159 -0.417673
-1.123067 0.508752 -0.673377 -0.892042 -0.285235 -0.350573
-1.132288 0.464701 -0.614076 -0.892042 -0.285235 -0.350573
-1.139456 0.520915 -0.641573 -0.892042 -0.285235 -0.350573
-1.155002 0.562694 -0.598466 -0.938141 0.008081 -0.346159
-1.123938 0.633974 -0.680990 -0.938141 0.008081 -0.346159
-1.139456 0.520915 -0.641573 -0.938141 0.008081 -0.346159
-1.153617 0.503169 -0.547812 -0.973108 -0.214292 0.084503
-1.149162 0.510099 -0.478935 -0.973108 -0.214292 0.084503
-1.153526 0.533857 -0.468945 -0.973108 -0.214292 0.084503
-1.153617 0.503169 -0.547812 -0.943030 -0.332530 -0.010877
-1.138062 0.459645 -0.565825 -0.943030 -0.332530 -0.010877
-1.145983 0.480337 -0.511606 -0.943030 -0.332530 -0.010877
-1.155002 0.562694 -0.598466 -0.968065 -0.175156 -0.179359
-1.139456 0.520915 -0.641573 -0.968065 -0.175156 -0.179359
-1.153617 0.503169 -0.547812 -0.968065 -0.175156 -0.179359
-1.121861 -0.628420 -0.684307 -0.886379 -0.044907 -0.460777
-1.137774 -0.564568 -0.659918 -0.886379 -0.044907 -0.460777
-1.120975 -0.561671 -0.692517 -0.886379 -0.044907 -0.460777
-1.147714 -0.491792 -0.581333 -0.987190 0.158944 -0.013891
-1.161299 -0.572129 -0.535085 -0.987190 0.158944 -0.013891
-1.148148 -0.487519 -0.501627 -0.987190 0.158944 -0.013891
-1.147714 -0.491792 -0.581333 -0.968339 0.248945 -0.018614
-1.148148 -0.487519 -0.501627 -0.968339 0.248945 -0.018614
-1.139740 -0.459327 -0.561966 -0.968339 0.248945 -0.018614
-1.147714 -0.491792 -0.581333 -0.923010 0.337233 -0.185274
-1.139740 -0.459327 -0.561966 -0.923010 0.337233 -0.185274
-1.130650 -0.470328 -0.627276 -0.923010 0.337233 -0.185274
-1.156555 -0.619195 -0.504622 -0.981260 -0.095568 0.167316
-1.149120 -0.640126 -0.472973 -0.981260 -0.095568 0.167316
-1.152664 -0.579026 -0.458855 -0.981260 -0.095568 0.167316
-1.155896 -0.616980 -0.581626 -0.994114 -0.107716 -0.011607
-1.156555 -0.619195 -0.504622 -0.994114 -0.107716 -0.011607
-1.161299 -0.572129 -0.535085 -0.994114 -0.107716 -0.011607
-1.147714 -0.491792 -0.581333 -0.947200 0.166521 -0.274014
-1.130650 -0.470328 -0.627276 -0.947200 0.166521 -0.274014
-1.137774 -0.564568 -0.659918 -0.947200 0.166521 -0.274014
-1.157146 -0.552801 -0.578584 -0.958955 0.137071 -0.248228
-1.147714 -0.491792 -0.581333 -0.958955 0.137071 -0.248228
-1.137774 -0.564568 -0.659918 -0.958955 0.137071 -0.248228
-1.137774 -0.564568 -0.659918 -0.938129 0.174521 -0.299092
-1.130650 -0.470328 -0.627276 -0.938129 0.174521 -0.299092
-1.123223 -0.523815 -0.681780 -0.938129 0.174521 -0.299092
-1.137774 -0.564568 -0.659918 -0.973019 -0.008020 -0.230587
-1.155896 -0.616980 -0.581626 -0.973019 -0.008020 -0.230587
-1.157146 -0.552801 -0.578584 -0.973019 -0.008020 -0.230587
-1.141417 -0.644023 -0.624798 -0.936226 -0.105271 -0.335260
-1.137774 -0.564568 -0.659918 -0.936226 -0.105271 -0.335260
-1.121861 -0.628420 -0.684307 -0.936226 -0.105271 -0.335260
-1.123223 -0.523815 -0.681780 -0.889093 0.075258 -0.451497
-1.120975 -0.561671 -0.692517 -0.889093 0.075258 -0.451497
-1.137774 -0.564568 -0.659918 -0.889093 0.075258 -0.451497
-1.145764 -0.672688 -0.504247 -0.973977 -0.224110 -0.033805
-1.155896 -0.616980 -0.581626 -0.973977 -0.224110 -0.033805
-1.139189 -0.695140 -0.544840 -0.973977 -0.224110 -0.033805
-1.155896 -0.616980 -0.581626 -0.955840 -0.239202 -0.170742
-1.141417 -0.644023 -0.624798 -0.955840 -0.239202 -0.170742
-1.131801 -0.696158 -0.605591 -0.955840 -0.239202 -0.170742
-1.131801 -0.696158 -0.605591 -0.959585 -0.258010 -0.112368
-1.139189 -0.695140 -0.544840 -0.959585 -0.258010 -0.112368
-1.155896 -0.616980 -0.581626 -0.959585 -0.258010 -0.112368
-1.148657 0.641785 -0.473714 -0.980700 0.176117 0.084913
-1.145241 0.679489 -0.512470 -0.980700 0.176117 0.084913
-1.159030 0.612589 -0.532970 -0.980700 0.176117 0.084913
-1.159030 0.612589 -0.532970 -0.996740 -0.004163 0.080569
-1.153526 0.533857 -0.468945 -0.996740 -0.004163 0.080569
-1.152892 0.578808 -0.458781 -0.996740 -0.004163 0.080569
-1.152892 0.578808 -0.458781 -0.987424 0.096164 0.125483
-1.148657 0.641785 -0.473714 -0.987424 0.096164 0.125483
-1.159030 0.612589 -0.532970 -0.987424 0.096164 0.125483
-1.153617 0.503169 -0.547812 -0.977233 -0.195319 0.082861
-1.145983 0.480337 -0.511606 -0.977233 -0.195319 0.082861
-1.149162 0.510099 -0.478935 -0.977233 -0.195319 0.082861
3 0 1 2
3 3 4 5
3 6 7 8
3 9 10 11
3 12 13 14
3 15 16 17
3 18 19 20
3 21 22 23
3 24 25 26
3 27 28 29
3 30 31 32
3 33 34 35
3 36 37 38
3 39 40 41
3 42 43 44
3 45 46 47
3 48 49 50
3 51 52 53
3 54 55 56
3 57 58 59
3 60 61 62
3 63 64 65
3 66 67 68
3 69 70 71
3 72 73 74
3 75 76 77
3 78 79 80
3 81 82 83
3 84 85 86
3 87 88 89
3 90 91 92
3 93 94 95
3 96 97 98
3 99 100 101
3 102 103 104
3 105 106 107
3 108 109 110
3 111 112 113
3 114 115 116
3 117 118 119
3 120 121 122
3 123 124 125
3 126 127 128
3 129 130 131
3 132 133 134
3 135 136 137
3 138 139 140
